<svg id="Layer_5" enable-background="new 0 0 64 64" height="512" viewBox="0 0 64 64" width="512" xmlns="http://www.w3.org/2000/svg"><g><path d="m63 37.777v-7.555l-2.802-.713c-.119-.319-.253-.639-.4-.957l1.479-2.489-5.342-5.342-2.489 1.48c-.317-.147-.638-.281-.956-.4l-.713-2.801h-2.777v-13c0-2.757-2.243-5-5-5h-38c-2.757 0-5 2.243-5 5v9h8v26h-3c-2.757 0-5 2.243-5 5s2.243 5 5 5h3v7c0 2.757 2.243 5 5 5h38c2.757 0 5-2.243 5-5v-5h-8v-4h2.777l.713-2.802c.318-.119.639-.252.956-.4l2.489 1.48 5.342-5.342-1.479-2.489c.147-.317.281-.637.4-.956zm-60-24.777v-7c0-1.654 1.346-3 3-3s3 1.346 3 3v7zm6 34h18v2h-18zm20-3.382 3.658 1.829c.211.106.342.317.342.553s-.131.447-.342.553l-3.658 1.829zm-2 1.382h-18v-2h18zm-24 1c0-1.654 1.346-3 3-3h1v6h-1c-1.654 0-3-1.346-3-3zm52 12c0 1.654-1.346 3-3 3h-34.002c.629-.836 1.002-1.875 1.002-3v-3h36zm-8-5h-30v5c0 1.654-1.346 3-3 3s-3-1.346-3-3v-7h17.236l5.316-2.658c.893-.446 1.448-1.344 1.448-2.342s-.555-1.896-1.447-2.342l-5.317-2.658h-17.236v-35c0-1.13-.391-2.162-1.026-3h34.026c1.654 0 3 1.346 3 3v13h-2.777l-.713 2.802c-.318.119-.639.252-.956.4l-2.489-1.48-5.342 5.342 1.479 2.489c-.147.318-.281.637-.4.957l-2.802.713v7.555l2.802.713c.119.319.253.639.4.956l-1.479 2.489 5.342 5.342 2.489-1.48c.317.147.638.281.956.4l.713 2.802h2.777zm11.764-11.379-3.143 3.143-2.095-1.246-.492.254c-.56.289-1.126.525-1.686.704l-.528.169-.597 2.355h-4.445l-.598-2.354-.528-.169c-.56-.179-1.126-.415-1.686-.704l-.492-.254-2.095 1.246-3.143-3.143 1.246-2.096-.256-.493c-.288-.558-.525-1.124-.704-1.683l-.168-.528-2.354-.599v-4.445l2.354-.599.168-.528c.179-.558.416-1.125.705-1.683l.255-.493-1.246-2.095 3.143-3.143 2.095 1.246.492-.254c.56-.289 1.126-.525 1.686-.704l.528-.169.597-2.356h4.445l.598 2.354.528.169c.56.179 1.126.415 1.686.704l.492.254 2.095-1.246 3.143 3.143-1.246 2.095.255.493c.289.559.526 1.125.705 1.683l.168.528 2.354.6v4.445l-2.354.599-.168.528c-.179.559-.416 1.125-.704 1.683l-.256.493z"/><path d="m48 25c-4.963 0-9 4.038-9 9s4.037 9 9 9 9-4.038 9-9-4.037-9-9-9zm0 16c-3.859 0-7-3.14-7-7s3.141-7 7-7 7 3.14 7 7-3.141 7-7 7z"/><path d="m45 5h-32v12h32zm-2 10h-28v-8h28z"/><path d="m13 19h18v2h-18z"/><path d="m29 23h2v2h-2z"/><path d="m13 23h14v2h-14z"/><path d="m13 27h18v2h-18z"/><path d="m17 31h14v2h-14z"/><path d="m13 31h2v2h-2z"/><path d="m13 35h18v2h-18z"/></g></svg>